<svg width="20" height="22" viewBox="0 0 20 22" fill="none" xmlns="http://www.w3.org/2000/svg">
<path d="M18.1655 4.088C18.0804 3.9751 17.9895 3.86671 17.8932 3.76328C17.9901 3.50501 18.0637 3.23858 18.1131 2.96719C18.2591 1.97438 18.1323 0.960574 17.7465 0.0342306C17.7465 0.0342306 16.5733 -0.332389 13.8813 1.47976C12.7384 1.16419 11.5579 1.00562 10.3722 1.00839C9.18315 1.00631 7.99926 1.16486 6.85266 1.47976C4.16062 -0.353339 2.98744 0.0342306 2.98744 0.0342306C2.60624 0.950764 2.47957 1.95322 2.62082 2.93577C2.67052 3.21845 2.7477 3.4956 2.85126 3.76328C2.75699 3.86803 2.66272 3.98325 2.57892 4.088C1.79727 5.06847 1.38234 6.29101 1.40573 7.5447C1.40325 7.84204 1.41724 8.13928 1.44763 8.43506C1.78283 13.0754 4.87291 14.1543 7.81635 14.4895C7.39974 14.8769 7.11725 15.3869 7.00978 15.9455C6.91242 16.3181 6.86661 16.7023 6.87361 17.0873V18.4595C5.70147 18.5642 4.49896 18.3935 4.12605 17.3481C3.72576 16.3475 3.06188 15.4741 2.20497 14.8205C2.14234 14.7866 2.08276 14.7474 2.02689 14.7032C1.95165 14.5055 1.81833 14.3351 1.64446 14.2145C1.4706 14.0939 1.26432 14.0288 1.05273 14.0276H1.04749C0.770589 14.0276 0.504947 14.1372 0.308656 14.3325C0.112364 14.5278 0.0013932 14.7929 8.67331e-06 15.0698C-0.00313378 15.9204 0.848472 16.4703 1.19728 16.6568C1.60481 17.0674 1.93263 17.5501 2.16411 18.0803C2.5454 19.1519 3.66097 20.7807 6.84218 20.5691L6.84428 20.6718L6.84847 20.9525C6.84847 21.2303 6.95883 21.4968 7.15527 21.6932C7.35171 21.8896 7.61814 22 7.89595 22H12.8338C13.1116 22 13.378 21.8896 13.5745 21.6932C13.7709 21.4968 13.8813 21.2303 13.8813 20.9525C13.8813 20.9525 13.8897 17.6425 13.8897 17.0873C13.8966 16.7023 13.8508 16.3181 13.7535 15.9455L13.7514 15.9392L13.7556 15.9455C13.7462 15.9089 13.7325 15.8795 13.7221 15.8439C13.6054 15.3249 13.3353 14.853 12.9469 14.4895L12.9595 14.5115L12.9385 14.4906C15.882 14.1554 18.9511 13.0555 19.2863 8.43611C19.3167 8.14032 19.3307 7.84308 19.3282 7.54575C19.3468 6.29454 18.9365 5.07467 18.1655 4.08905V4.088Z" fill="#FEFEFE"/>
</svg>
