<svg width="22" height="22" viewBox="0 0 22 22" fill="none" xmlns="http://www.w3.org/2000/svg">
<path d="M12.2222 22H7.33333V7.33333H12.2222V9.77778C12.7369 9.123 13.3901 8.59023 14.135 8.21768C14.8798 7.84514 15.6979 7.64206 16.5306 7.623C17.9867 7.63108 19.3802 8.2163 20.4055 9.25031C21.4308 10.2843 22.0042 11.6827 22 13.1389V22H17.1111V13.75C17.0165 13.0895 16.6866 12.4853 16.182 12.0488C15.6774 11.6122 15.032 11.3726 14.3648 11.374C14.0661 11.3834 13.7725 11.4531 13.5014 11.5788C13.2304 11.7046 12.9875 11.8838 12.7874 12.1056C12.5873 12.3275 12.4341 12.5876 12.337 12.8701C12.2399 13.1527 12.2008 13.452 12.2222 13.75V22ZM4.88889 22H0V7.33333H4.88889V22ZM2.44444 4.88889C1.79614 4.88889 1.17438 4.63135 0.715961 4.17293C0.257539 3.71451 0 3.09275 0 2.44444C0 1.79614 0.257539 1.17438 0.715961 0.715961C1.17438 0.257539 1.79614 0 2.44444 0C3.09275 0 3.71451 0.257539 4.17293 0.715961C4.63135 1.17438 4.88889 1.79614 4.88889 2.44444C4.88889 3.09275 4.63135 3.71451 4.17293 4.17293C3.71451 4.63135 3.09275 4.88889 2.44444 4.88889Z" fill="#FEFEFE"/>
</svg>
