<svg width="304" height="30" viewBox="0 0 304 30" fill="none" xmlns="http://www.w3.org/2000/svg">
<path d="M24.12 29V10.36L16.84 24.24H13.76L6.48 10.36V29H0.96V0.599998H6.88L15.28 16.76L23.76 0.599998H29.64V29H24.12ZM49.2894 0.599998H54.8894L65.3294 29H59.6494L57.0094 21.92H47.0894L44.4894 29H38.8094L49.2894 0.599998ZM56.0094 18.04L52.0894 6.32L48.0094 18.04H56.0094ZM74.4444 29V0.599998H87.0044C88.311 0.599998 89.511 0.866665 90.6044 1.4C91.7244 1.93333 92.6844 2.65333 93.4844 3.56C94.311 4.46666 94.9377 5.48 95.3644 6.6C95.8177 7.72 96.0444 8.86667 96.0444 10.04C96.0444 11.8533 95.5777 13.52 94.6444 15.04C93.7377 16.56 92.4977 17.6533 90.9244 18.32L97.4044 29H91.3244L85.4844 19.48H79.9644V29H74.4444ZM79.9644 14.64H86.8844C87.9244 14.64 88.7777 14.2 89.4444 13.32C90.1377 12.4133 90.4844 11.32 90.4844 10.04C90.4844 9.16 90.2977 8.37333 89.9244 7.68C89.551 6.98667 89.071 6.44 88.4844 6.04C87.9244 5.64 87.311 5.44 86.6444 5.44H79.9644V14.64ZM105.17 14.6C105.17 12.8667 105.476 11.16 106.09 9.48C106.73 7.8 107.65 6.28 108.85 4.92C110.05 3.56 111.516 2.48 113.25 1.68C114.983 0.853332 116.956 0.439998 119.17 0.439998C121.756 0.439998 124.01 1.01333 125.93 2.16C127.85 3.30667 129.276 4.8 130.21 6.64L125.97 9.56C125.49 8.49333 124.863 7.65333 124.09 7.04C123.316 6.42667 122.476 5.98667 121.57 5.72C120.69 5.45333 119.836 5.32 119.01 5.32C117.623 5.32 116.41 5.6 115.37 6.16C114.356 6.72 113.503 7.45333 112.81 8.36C112.116 9.26667 111.596 10.28 111.25 11.4C110.93 12.52 110.77 13.64 110.77 14.76C110.77 16.44 111.116 18.0133 111.81 19.48C112.503 20.92 113.476 22.0933 114.73 23C115.983 23.9067 117.436 24.36 119.09 24.36C119.943 24.36 120.823 24.2133 121.73 23.92C122.663 23.6267 123.516 23.16 124.29 22.52C125.063 21.88 125.663 21.0533 126.09 20.04L130.61 22.64C130.023 24.0533 129.103 25.2533 127.85 26.24C126.596 27.2 125.183 27.9467 123.61 28.48C122.036 28.9867 120.476 29.24 118.93 29.24C116.903 29.24 115.05 28.8267 113.37 28C111.716 27.1467 110.276 26.0267 109.05 24.64C107.823 23.2267 106.863 21.6533 106.17 19.92C105.503 18.16 105.17 16.3867 105.17 14.6ZM160.032 24.16V29H140.312V0.599998H159.672V5.44H145.832V12.28H157.792V16.76H145.832V24.16H160.032ZM170.335 29V0.599998H175.855V24.16H190.335V29H170.335ZM199.694 29V0.599998H205.214V29H199.694ZM255.629 21.68C255.629 23.28 255.216 24.6267 254.389 25.72C253.562 26.7867 252.442 27.6 251.029 28.16C249.642 28.72 248.122 29 246.469 29H232.749V0.599998H247.949C249.282 0.599998 250.429 0.959999 251.389 1.68C252.349 2.37333 253.096 3.28 253.629 4.4C254.162 5.52 254.429 6.66667 254.429 7.84C254.429 9.22667 254.082 10.5333 253.389 11.76C252.696 12.96 251.682 13.8533 250.349 14.44C251.976 14.92 253.256 15.7867 254.189 17.04C255.149 18.2933 255.629 19.84 255.629 21.68ZM238.269 5.32V12.48H245.629C246.536 12.48 247.322 12.16 247.989 11.52C248.656 10.88 248.989 10 248.989 8.88C248.989 7.81333 248.682 6.96 248.069 6.32C247.482 5.65333 246.749 5.32 245.869 5.32H238.269ZM250.069 20.64C250.069 19.6 249.749 18.7067 249.109 17.96C248.469 17.2133 247.682 16.84 246.749 16.84H238.269V24.32H246.469C247.482 24.32 248.336 23.96 249.029 23.24C249.722 22.52 250.069 21.6533 250.069 20.64ZM265.937 29V0.599998H271.457V29H265.937ZM283.382 29V0.599998H288.902V24.16H303.382V29H283.382Z" fill="#FEFEFE"/>
</svg>
